<mxfile host="app.diagrams.net" modified="2020-08-29T04:01:29.298Z" agent="5.0 (Windows NT 10.0; Win64; x64) AppleWebKit/537.36 (KHTML, like Gecko) Chrome/81.0.4044.138 Safari/537.36 OPR/68.0.3618.206" etag="Sa35VoAGA8ZIjQSsMzhO" version="13.6.5" type="github">
  <diagram id="v7aGFNwFBq9K7fKkdK1N" name="Page-1">
    <mxGraphModel dx="1381" dy="764" grid="1" gridSize="10" guides="1" tooltips="1" connect="1" arrows="1" fold="1" page="1" pageScale="1" pageWidth="827" pageHeight="1169" math="0" shadow="0">
      <root>
        <mxCell id="0" />
        <mxCell id="1" parent="0" />
        <mxCell id="MLmbnsoj7BPN00J2Tz2l-1" value="Start" style="ellipse;whiteSpace=wrap;html=1;" vertex="1" parent="1">
          <mxGeometry x="105" y="40" width="120" height="80" as="geometry" />
        </mxCell>
        <mxCell id="MLmbnsoj7BPN00J2Tz2l-2" value="Base, AreaQuadrado" style="shape=internalStorage;whiteSpace=wrap;html=1;dx=15;dy=15;rounded=1;arcSize=8;strokeWidth=2;" vertex="1" parent="1">
          <mxGeometry x="90" y="170" width="150" height="90" as="geometry" />
        </mxCell>
        <mxCell id="MLmbnsoj7BPN00J2Tz2l-3" value="Base" style="html=1;strokeWidth=2;shape=manualInput;whiteSpace=wrap;rounded=1;size=26;arcSize=11;" vertex="1" parent="1">
          <mxGeometry x="95" y="300" width="140" height="90" as="geometry" />
        </mxCell>
        <mxCell id="MLmbnsoj7BPN00J2Tz2l-4" value="AreaQuadrado = Base * Base" style="rounded=1;whiteSpace=wrap;html=1;absoluteArcSize=1;arcSize=14;strokeWidth=2;" vertex="1" parent="1">
          <mxGeometry x="80" y="440" width="170" height="80" as="geometry" />
        </mxCell>
        <mxCell id="MLmbnsoj7BPN00J2Tz2l-5" value="AreaQuadrado" style="strokeWidth=2;html=1;shape=mxgraph.flowchart.document2;whiteSpace=wrap;size=0.25;" vertex="1" parent="1">
          <mxGeometry x="85" y="570" width="160" height="80" as="geometry" />
        </mxCell>
        <mxCell id="MLmbnsoj7BPN00J2Tz2l-6" value="End" style="ellipse;whiteSpace=wrap;html=1;" vertex="1" parent="1">
          <mxGeometry x="105" y="690" width="120" height="80" as="geometry" />
        </mxCell>
        <mxCell id="MLmbnsoj7BPN00J2Tz2l-7" value="" style="endArrow=classic;html=1;entryX=0.5;entryY=0;entryDx=0;entryDy=0;" edge="1" parent="1" source="MLmbnsoj7BPN00J2Tz2l-5" target="MLmbnsoj7BPN00J2Tz2l-6">
          <mxGeometry width="50" height="50" relative="1" as="geometry">
            <mxPoint x="470" y="400" as="sourcePoint" />
            <mxPoint x="520" y="350" as="targetPoint" />
          </mxGeometry>
        </mxCell>
        <mxCell id="MLmbnsoj7BPN00J2Tz2l-8" value="" style="endArrow=classic;html=1;exitX=0.5;exitY=1;exitDx=0;exitDy=0;entryX=0.5;entryY=0;entryDx=0;entryDy=0;entryPerimeter=0;" edge="1" parent="1" source="MLmbnsoj7BPN00J2Tz2l-4" target="MLmbnsoj7BPN00J2Tz2l-5">
          <mxGeometry width="50" height="50" relative="1" as="geometry">
            <mxPoint x="470" y="400" as="sourcePoint" />
            <mxPoint x="520" y="350" as="targetPoint" />
          </mxGeometry>
        </mxCell>
        <mxCell id="MLmbnsoj7BPN00J2Tz2l-9" value="" style="endArrow=classic;html=1;exitX=0.5;exitY=1;exitDx=0;exitDy=0;entryX=0.5;entryY=0;entryDx=0;entryDy=0;" edge="1" parent="1" source="MLmbnsoj7BPN00J2Tz2l-3" target="MLmbnsoj7BPN00J2Tz2l-4">
          <mxGeometry width="50" height="50" relative="1" as="geometry">
            <mxPoint x="470" y="400" as="sourcePoint" />
            <mxPoint x="520" y="350" as="targetPoint" />
          </mxGeometry>
        </mxCell>
        <mxCell id="MLmbnsoj7BPN00J2Tz2l-10" value="" style="endArrow=classic;html=1;exitX=0.5;exitY=1;exitDx=0;exitDy=0;entryX=0.5;entryY=0;entryDx=0;entryDy=0;" edge="1" parent="1" source="MLmbnsoj7BPN00J2Tz2l-2" target="MLmbnsoj7BPN00J2Tz2l-3">
          <mxGeometry width="50" height="50" relative="1" as="geometry">
            <mxPoint x="470" y="400" as="sourcePoint" />
            <mxPoint x="520" y="350" as="targetPoint" />
          </mxGeometry>
        </mxCell>
        <mxCell id="MLmbnsoj7BPN00J2Tz2l-11" value="" style="endArrow=classic;html=1;exitX=0.5;exitY=1;exitDx=0;exitDy=0;entryX=0.5;entryY=0;entryDx=0;entryDy=0;" edge="1" parent="1" source="MLmbnsoj7BPN00J2Tz2l-1" target="MLmbnsoj7BPN00J2Tz2l-2">
          <mxGeometry width="50" height="50" relative="1" as="geometry">
            <mxPoint x="470" y="400" as="sourcePoint" />
            <mxPoint x="520" y="350" as="targetPoint" />
          </mxGeometry>
        </mxCell>
      </root>
    </mxGraphModel>
  </diagram>
</mxfile>
